<svg xmlns="http://www.w3.org/2000/svg" viewBox="0 0 1200 600" fill="none"><g stroke="#44B9FF" stroke-opacity=".16"><path d="M0 100h1200M0 200h1200M0 300h1200M0 400h1200M0 500h1200M100 0v600M200 0v600M300 0v600M400 0v600M500 0v600M600 0v600M700 0v600M800 0v600M900 0v600M1000 0v600M1100 0v600"/><path d="M110 450 350 230l210 120 250-225 280 160" stroke="#74F3CF" stroke-opacity=".55" stroke-width="2"/><circle cx="350" cy="230" r="9" fill="#07111F" stroke="#74F3CF" stroke-width="3"/><circle cx="810" cy="125" r="9" fill="#07111F" stroke="#44B9FF" stroke-width="3"/></g></svg>
