<?xml version="1.0" encoding="UTF-8"?>
<!DOCTYPE svg PUBLIC "-//W3C//DTD SVG 1.1//EN" "http://www.w3.org/Graphics/SVG/1.1/DTD/svg11.dtd">
<!-- Creator: CorelDRAW (Evaluation Version) -->
<svg xmlns="http://www.w3.org/2000/svg" xml:space="preserve" width="50px" height="39px" version="1.1" style="shape-rendering:geometricPrecision; text-rendering:geometricPrecision; image-rendering:optimizeQuality; fill-rule:evenodd; clip-rule:evenodd"
viewBox="0 0 50 38.64"
 xmlns:xlink="http://www.w3.org/1999/xlink"
 xmlns:xodm="http://www.corel.com/coreldraw/odm/2003">
 <defs>
  <style type="text/css">
   <![CDATA[
    .fil0 {fill:#5CC6D0;fill-rule:nonzero}
   ]]>
  </style>
 </defs>
 <g id="Layer_x0020_1">
  <metadata id="CorelCorpID_0Corel-Layer"/>
  <g id="_1945327654368">
   <g>
    <path class="fil0" d="M34.38 31.42c-2.12,-3.95 -4.41,-7.72 -6.56,-11.61 -2.27,-4.14 -4.4,-8.4 -6.61,-12.62l3.33 0c2.21,4.3 4.68,8.41 6.99,12.55 1.33,2.38 2.54,4.76 3.77,7.2 1.19,2.37 1.23,2.21 2.32,4.48l-3.24 0z"/>
    <path class="fil0" d="M15.57 31.45l-3.19 0c3.61,-10.95 3.86,-11.86 8.87,-24.26l3.31 0c-3.39,7.83 -5.2,13.5 -8.01,21.78 0,0.02 2.79,-0.1 5.19,-0.08 0,0 -0.14,2.51 -0.14,2.51 -3.08,0 -6.03,0.03 -6.03,0.05z"/>
   </g>
  </g>
 </g>
</svg>
